<svg id="Isolation_Mode" data-name="Isolation Mode" xmlns="http://www.w3.org/2000/svg" viewBox="0 0 22.85 26.28"><defs><style>.cls-1{fill:#9d9d9c;fill-rule:evenodd;}</style></defs><title>calc</title><path class="cls-1" d="M20.57,9.14H2.29V2.29H20.57Zm-1.14,4.57H17.14V11.43h2.29Zm0,3.43H17.14V14.85h2.29Zm0,6.86H17.14V18.28h2.29ZM16,13.71H12.57V11.43H16Zm0,3.43H12.57V14.85H16Zm0,3.43H12.57V18.28H16ZM16,24H12.57V21.71H16ZM11.43,13.71H8V11.43h3.43Zm0,3.43H8V14.85h3.43Zm0,3.43H8V18.28h3.43Zm0,3.43H8V21.71h3.43ZM6.86,13.71H3.43V11.43H6.86Zm0,3.43H3.43V14.85H6.86Zm0,3.43H3.43V18.28H6.86Zm0,3.43H3.43V21.71H6.86ZM0,2.42V24.05a2.22,2.22,0,0,0,2.16,2.23H20.6A2.22,2.22,0,0,0,22.84,24c0-5.94-.07-21.61,0-21.69A2.51,2.51,0,0,0,20.62,0C20.19,0,2.74.07,2.51,0A2.51,2.51,0,0,0,0,2.42"/></svg>