<svg id="Layer_1" data-name="Layer 1" xmlns="http://www.w3.org/2000/svg" viewBox="0 0 38.1 38.1"><defs><style>.cls-1{fill:#bababa;}</style></defs><title>questionmark</title><path class="cls-1" d="M19.05,0A19.05,19.05,0,1,0,38.1,19.05,19.05,19.05,0,0,0,19.05,0ZM21.7,32H16.79V27.24H21.7Zm4.69-13.82A12.55,12.55,0,0,1,24,20.42l-1.16.91a3.53,3.53,0,0,0-1.26,1.72A7.33,7.33,0,0,0,21.36,25H16.91a13,13,0,0,1,.52-3.84,6.8,6.8,0,0,1,2.2-2.43l1.19-.94a4.34,4.34,0,0,0,.95-1,3.28,3.28,0,0,0,.66-2,3.86,3.86,0,0,0-.73-2.27,3.08,3.08,0,0,0-2.66-1,3,3,0,0,0-2.7,1.27,4.86,4.86,0,0,0-.79,2.63H10.8c.13-3.12,1.22-5.34,3.27-6.64a8.63,8.63,0,0,1,4.76-1.25A10.31,10.31,0,0,1,25,9.31a6.07,6.07,0,0,1,2.45,5.25A6,6,0,0,1,26.39,18.16Z"/></svg>