<svg id="Isolation_Mode" data-name="Isolation Mode" xmlns="http://www.w3.org/2000/svg" viewBox="0 0 65.08 63.79"><defs><style>.cls-1{fill:#fff;stroke:#a7a9ac;}.cls-2{fill:#bcbec0;}.cls-3{fill:#a7a9ac;}.cls-4{fill:#f47c27;}.cls-5{fill:#b0d238;}.cls-6{fill:#6cc4ef;}.cls-7{fill:#a1a3a6;}</style></defs><title>slider_bg_320</title><rect class="cls-1" x="21.63" y="47.72" width="21.73" height="15.57" rx="2.11" ry="2.11"/><polygon class="cls-2" points="26.19 58.72 24.28 58.72 23.68 53.71 26.66 53.71 26.19 58.72"/><path class="cls-2" d="M26.19,60.15a1,1,0,1,1-1-.95A1,1,0,0,1,26.19,60.15Z"/><rect class="cls-2" x="28.7" y="56.5" width="11.61" height="1.01"/><rect class="cls-2" x="28.7" y="58.21" width="11.61" height="1.01"/><rect class="cls-2" x="28.7" y="59.93" width="11.61" height="1.01"/><path class="cls-3" d="M21.29,58.24A27.39,27.39,0,0,1,4.58,16.37l1.17.78A26,26,0,0,0,21.61,56.87l-.32,1.37Z"/><path class="cls-3" d="M43.79,58.24l-.31-1.37A26,26,0,0,0,59.34,17.15l1.17-.78A27.41,27.41,0,0,1,43.79,58.24Z"/><polygon class="cls-3" points="33.6 47.72 32.19 47.72 32.19 28.1 33.6 28.1 33.6 47.72 33.6 47.72"/><path class="cls-4" d="M7.35,16.76a2.29,2.29,0,1,1-2.29-2.29A2.28,2.28,0,0,1,7.35,16.76Z"/><path class="cls-5" d="M35.18,27.55a2.29,2.29,0,1,1-2.29-2.28A2.28,2.28,0,0,1,35.18,27.55Z"/><path class="cls-6" d="M62,16.76a2.29,2.29,0,1,1-2.28-2.29A2.28,2.28,0,0,1,62,16.76Z"/><path class="cls-7" d="M53.15,15.34a45.42,45.42,0,0,0-6.82-3.28l.06-2.15s1-.31,1-2.07c0-.27.47.54.47-2.19,0-.18-.51-.15-.51-.15V3.37A3.3,3.3,0,0,0,43.89.62a3.3,3.3,0,0,0-3.5,2.75V5.5s-.51,0-.51.15c0,2.73.47,1.92.47,2.19,0,1.76,1,2.07,1,2.07l.07,2.15a24.22,24.22,0,0,0-3.51,1.5A64.08,64.08,0,0,1,44.85,17v2.65h8.3Z"/><path class="cls-7" d="M12.63,15.34a45.7,45.7,0,0,1,6.83-3.28l-.07-2.15s-1-.31-1-2.07c0-.27-.47.54-.47-2.19,0-.18.51-.15.51-.15V3.37A3.3,3.3,0,0,1,21.9.62a3.31,3.31,0,0,1,3.5,2.75V5.5s.51,0,.51.15c0,2.73-.47,1.92-.47,2.19,0,1.76-1,2.07-1,2.07l-.07,2.15a24.22,24.22,0,0,1,3.51,1.5A65.15,65.15,0,0,0,20.93,17v2.65h-8.3Z"/><path class="cls-7" d="M37,14c-.42-.17-.84-.32-1.21-.43L35.87,11s1.23-.36,1.23-2.45c0-.33.56.64.56-2.62,0-.21-.6-.17-.6-.17V3.27A3.93,3.93,0,0,0,32.89,0a3.93,3.93,0,0,0-4.16,3.27V5.8s-.61,0-.61.17c0,3.26.56,2.29.56,2.62,0,2.09,1.23,2.45,1.23,2.45L30,13.6a54.75,54.75,0,0,0-8.13,3.9v5.17h22V17.5A66.15,66.15,0,0,0,37,14Z"/><path class="cls-3" d="M43.37,52V49.83a2.12,2.12,0,0,0-2.12-2.11H23.75a2.12,2.12,0,0,0-2.12,2.11V52Z"/></svg>