<svg id="Isolation_Mode" data-name="Isolation Mode" xmlns="http://www.w3.org/2000/svg" viewBox="0 0 26.26 25.66"><defs><style>.cls-1{fill:#9d9d9c;fill-rule:evenodd;}</style></defs><title>thumb_320</title><path class="cls-1" d="M15.24,10.19h-1c.35-.06,1.27-.65.25-5.6-1.24-6-3.65-4.4-3.65-4.4s-.58,4.33-.64,5.08c-.26,3.13-4.06,8-4.06,8,0,.4-2.72,1-2.72,1.36,0,3.53,0,6.55,0,10.19,2.53-.68,3.89.85,9.32.85A37.41,37.41,0,0,0,18.6,25h3.78c.86-.09,2.22-.43,2.43-1.66a1.73,1.73,0,0,0-1.17-1.77h.61a2,2,0,0,0,1.59-2.28,2.4,2.4,0,0,0-1.81-2s2.25-.22,2.23-1.92a1.92,1.92,0,0,0-2.17-1.83h-.61A1.94,1.94,0,0,0,25,11.4c-.12-1.12-1-2.14-1.94-2ZM0,15.9v8a1.15,1.15,0,0,0,2.29,0v-8A1.15,1.15,0,0,0,0,15.9" transform="translate(0 0)"/></svg>